<svg xmlns="http://www.w3.org/2000/svg" xmlns:xlink="http://www.w3.org/1999/xlink" style="display:none">
  <!-- React Icon -->
  <symbol id="react" viewBox="0 0 569 512">
    <g fill="none" fill-rule="evenodd">
      <g transform="translate(-227, -256)" fill="#58C4DC" fill-rule="nonzero">
        <g transform="translate(227, 256)">
          <path d="M285.5,201 C255.400481,201 231,225.400481 231,255.5 C231,285.599519 255.400481,310 285.5,310 C315.599519,310 340,285.599519 340,255.5 C340,225.400481 315.599519,201 285.5,201" id="Path"></path>
          <path d="M568.959856,255.99437 C568.959856,213.207656 529.337802,175.68144 466.251623,150.985214 C467.094645,145.423543 467.85738,139.922107 468.399323,134.521063 C474.621631,73.0415145 459.808523,28.6686204 426.709856,9.5541429 C389.677085,-11.8291748 337.36955,3.69129898 284.479928,46.0162134 C231.590306,3.69129898 179.282771,-11.8291748 142.25,9.5541429 C109.151333,28.6686204 94.3382249,73.0415145 100.560533,134.521063 C101.102476,139.922107 101.845139,145.443621 102.708233,151.02537 C97.4493791,153.033193 92.2908847,155.161486 87.3331099,157.39017 C31.0111824,182.708821 0,217.765415 0,255.99437 C0,298.781084 39.6220545,336.307301 102.708233,361.003527 C101.845139,366.565197 101.102476,372.066633 100.560533,377.467678 C94.3382249,438.947226 109.151333,483.32012 142.25,502.434597 C153.629683,508.887578 166.52439,512.186771 179.603923,511.991836 C210.956328,511.991836 247.567589,495.487529 284.479928,465.972527 C321.372196,495.487529 358.003528,511.991836 389.396077,511.991836 C402.475265,512.183856 415.36922,508.884856 426.75,502.434597 C459.848667,483.32012 474.661775,438.947226 468.439467,377.467678 C467.897524,372.066633 467.134789,366.565197 466.291767,361.003527 C529.377946,336.347457 569,298.761006 569,255.99437 M389.155214,27.1025182 C397.565154,26.899606 405.877839,28.9368502 413.241569,33.0055186 C436.223966,46.2772304 446.540955,82.2775015 441.522965,131.770345 C441.181741,135.143488 440.780302,138.556788 440.298575,141.990165 C414.066922,134.08804 387.205771,128.452154 360.010724,125.144528 C343.525021,103.224055 325.192524,82.7564475 305.214266,63.9661533 C336.586743,39.7116483 366.032313,27.1025182 389.135142,27.1025182 M378.356498,310.205598 C368.204912,327.830733 357.150626,344.919965 345.237759,361.405091 C325.045049,363.479997 304.758818,364.51205 284.459856,364.497299 C264.167589,364.51136 243.888075,363.479308 223.702025,361.405091 C211.820914,344.919381 200.80007,327.83006 190.683646,310.205598 C180.532593,292.629285 171.306974,274.534187 163.044553,255.99437 C171.306974,237.454554 180.532593,219.359455 190.683646,201.783142 C200.784121,184.229367 211.770999,167.201087 223.601665,150.764353 C243.824636,148.63809 264.145559,147.579168 284.479928,147.591877 C304.772146,147.579725 325.051559,148.611772 345.237759,150.68404 C357.109048,167.14607 368.136094,184.201112 378.27621,201.783142 C388.419418,219.363718 397.644825,237.458403 405.915303,255.99437 C397.644825,274.530337 388.419418,292.625022 378.27621,310.205598 M419.724813,290.127366 C426.09516,307.503536 431.324985,325.277083 435.380944,343.334682 C417.779633,348.823635 399.836793,353.149774 381.668372,356.285142 C388.573127,345.871232 395.263781,335.035679 401.740334,323.778483 C408.143291,312.655143 414.144807,301.431411 419.805101,290.207679 M246.363271,390.377981 C258.848032,391.140954 271.593728,391.582675 284.5,391.582675 C297.406272,391.582675 310.232256,391.140954 322.737089,390.377981 C310.880643,404.583418 298.10766,417.997563 284.5,430.534446 C270.921643,417.999548 258.18192,404.585125 246.363271,390.377981 Z M187.311556,356.244986 C169.137286,353.123646 151.187726,348.810918 133.578912,343.334682 C137.618549,325.305649 142.828222,307.559058 149.174827,290.207679 C154.754833,301.431411 160.736278,312.655143 167.239594,323.778483 C173.74291,334.901824 180.467017,345.864539 187.311556,356.285142 M149.174827,221.760984 C142.850954,204.473938 137.654787,186.794745 133.619056,168.834762 C151.18418,163.352378 169.085653,159.013101 187.211197,155.844146 C180.346585,166.224592 173.622478,176.986525 167.139234,188.210257 C160.65599,199.433989 154.734761,210.517173 149.074467,221.760984 M322.616657,121.590681 C310.131896,120.827708 297.3862,120.385987 284.379568,120.385987 C271.479987,120.385987 258.767744,120.787552 246.242839,121.590681 C258.061488,107.383537 270.801211,93.9691137 284.379568,81.4342157 C297.99241,93.9658277 310.765727,107.380324 322.616657,121.590681 Z M401.70019,188.210257 C395.196875,176.939676 388.472767,166.09743 381.527868,155.68352 C399.744224,158.819049 417.734224,163.151949 435.380944,168.654058 C431.331963,186.680673 426.122466,204.426664 419.785029,221.781062 C414.205023,210.55733 408.203506,199.333598 401.720262,188.230335 M127.517179,131.790423 C122.438973,82.3176579 132.816178,46.2973086 155.778503,33.0255968 C163.144699,28.9632474 171.455651,26.9264282 179.864858,27.1225964 C202.967687,27.1225964 232.413257,39.7317265 263.785734,63.9862316 C243.794133,82.7898734 225.448298,103.270812 208.949132,125.204763 C181.761691,128.528025 154.90355,134.14313 128.661281,141.990165 C128.199626,138.556788 127.778115,135.163566 127.456963,131.790423 M98.4529773,182.106474 C101.54406,180.767925 104.695358,179.429376 107.906872,178.090828 C114.220532,204.735668 122.781793,230.7969 133.498624,255.99437 C122.761529,281.241316 114.193296,307.357063 107.8868,334.058539 C56.7434387,313.076786 27.0971497,284.003505 27.0971497,255.99437 C27.0971497,229.450947 53.1907013,202.526037 98.4529773,182.106474 Z M155.778503,478.963143 C132.816178,465.691432 122.438973,429.671082 127.517179,380.198317 C127.838331,376.825174 128.259842,373.431953 128.721497,369.978497 C154.953686,377.878517 181.814655,383.514365 209.009348,386.824134 C225.500295,408.752719 243.832321,429.233234 263.805806,448.042665 C220.069,481.834331 180.105722,492.97775 155.838719,478.963143 M441.502893,380.198317 C446.520883,429.691161 436.203894,465.691432 413.221497,478.963143 C388.974566,493.017906 348.991216,481.834331 305.274481,448.042665 C325.241364,429.232737 343.566681,408.752215 360.050868,386.824134 C387.245915,383.516508 414.107066,377.880622 440.338719,369.978497 C440.820446,373.431953 441.221885,376.825174 441.563109,380.198317 M461.193488,334.018382 C454.869166,307.332523 446.294494,281.231049 435.561592,255.99437 C446.289797,230.744081 454.857778,204.629101 461.173416,177.930202 C512.216417,198.911955 541.942994,227.985236 541.942994,255.99437 C541.942994,284.003505 512.296705,313.076786 461.153344,334.058539" id="Shape"></path>
        </g>
      </g>
    </g>
  </symbol>
  <!-- Node Icon -->
  <symbol 
    id="node"
    viewBox="0 0 256 292"
    xmlns:xlink="http://www.w3.org/1999/xlink"
  >
    <defs>
      <linearGradient
        id="nodejs__a"
        x1="68.188%"
        x2="27.823%"
        y1="17.487%"
        y2="89.755%"
      >
        <stop offset="0%" stop-color="#41873F" />
        <stop offset="32.88%" stop-color="#418B3D" />
        <stop offset="63.52%" stop-color="#419637" />
        <stop offset="93.19%" stop-color="#3FA92D" />
        <stop offset="100%" stop-color="#3FAE2A" />
      </linearGradient>
      <linearGradient
        id="nodejs__c"
        x1="43.277%"
        x2="159.245%"
        y1="55.169%"
        y2="-18.306%"
      >
        <stop offset="13.76%" stop-color="#41873F" />
        <stop offset="40.32%" stop-color="#54A044" />
        <stop offset="71.36%" stop-color="#66B848" />
        <stop offset="90.81%" stop-color="#6CC04A" />
      </linearGradient>
      <linearGradient
        id="nodejs__f"
        x1="-4.389%"
        x2="101.499%"
        y1="49.997%"
        y2="49.997%"
      >
        <stop offset="9.192%" stop-color="#6CC04A" />
        <stop offset="28.64%" stop-color="#66B848" />
        <stop offset="59.68%" stop-color="#54A044" />
        <stop offset="86.24%" stop-color="#41873F" />
      </linearGradient>
      <path
        id="nodejs__b"
        d="M134.923 1.832c-4.344-2.443-9.502-2.443-13.846 0L6.787 67.801C2.443 70.244 0 74.859 0 79.745v132.208c0 4.887 2.715 9.502 6.787 11.945l114.29 65.968c4.344 2.444 9.502 2.444 13.846 0l114.29-65.968c4.344-2.443 6.787-7.058 6.787-11.945V79.745c0-4.886-2.715-9.501-6.787-11.944L134.923 1.832Z"
      />
      <path
        id="nodejs__e"
        d="M134.923 1.832c-4.344-2.443-9.502-2.443-13.846 0L6.787 67.801C2.443 70.244 0 74.859 0 79.745v132.208c0 4.887 2.715 9.502 6.787 11.945l114.29 65.968c4.344 2.444 9.502 2.444 13.846 0l114.29-65.968c4.344-2.443 6.787-7.058 6.787-11.945V79.745c0-4.886-2.715-9.501-6.787-11.944L134.923 1.832Z"
      />
    </defs>
    <path
      fill="url(#nodejs__a)"
      d="M134.923 1.832c-4.344-2.443-9.502-2.443-13.846 0L6.787 67.801C2.443 70.244 0 74.859 0 79.745v132.208c0 4.887 2.715 9.502 6.787 11.945l114.29 65.968c4.344 2.444 9.502 2.444 13.846 0l114.29-65.968c4.344-2.443 6.787-7.058 6.787-11.945V79.745c0-4.886-2.715-9.501-6.787-11.944L134.923 1.832Z"
    />
    <mask id="nodejs__d" fill="#fff">
      <use xlink:href="#nodejs__b" />
    </mask>
    <path
      fill="url(#nodejs__c)"
      d="M249.485 67.8 134.65 1.833c-1.086-.542-2.443-1.085-3.529-1.357L2.443 220.912c1.086 1.357 2.444 2.443 3.8 3.258l114.834 65.968c3.258 1.9 7.059 2.443 10.588 1.357L252.47 70.515c-.815-1.086-1.9-1.9-2.986-2.714Z"
      mask="url(#nodejs__d)"
    />
    <mask id="nodejs__g" fill="#fff">
      <use xlink:href="#nodejs__e" />
    </mask>
    <path
      fill="url(#nodejs__f)"
      d="M249.756 223.898c3.258-1.9 5.701-5.158 6.787-8.687L130.579.204c-3.258-.543-6.787-.272-9.773 1.628L6.786 67.53l122.979 224.238c1.628-.272 3.529-.815 5.158-1.63l114.833-66.239Z"
      mask="url(#nodejs__g)"
    />
  </symbol>
  <!-- TypeScript Icon -->
  <symbol id="typescript" viewBox="0 0 256 256">
    <rect width="256" height="256" rx="20" fill="#3178C6"/>
    <path d="M150.518 200.475v27.62c4.492 2.302 9.805 4.028 15.938 5.179 6.133 1.151 12.597 1.726 19.393 1.726 6.622 0 12.914-.633 18.874-1.899 5.96-1.266 11.187-3.352 15.678-6.257 4.492-2.906 8.048-6.704 10.669-11.394 2.62-4.689 3.93-10.486 3.93-17.391 0-5.006-.749-9.394-2.246-13.163a30.748 30.748 0 0 0-6.479-10.055c-2.821-2.935-6.205-5.567-10.149-7.898-3.945-2.33-8.394-4.531-13.347-6.602-3.628-1.497-6.881-2.949-9.761-4.359-2.879-1.41-5.327-2.848-7.342-4.316-2.016-1.467-3.571-3.021-4.665-4.661-1.094-1.64-1.641-3.495-1.641-5.567 0-1.899.489-3.61 1.468-5.135s2.362-2.834 4.147-3.927c1.785-1.094 3.973-1.942 6.565-2.547 2.591-.604 5.471-.906 8.638-.906 2.304 0 4.737.173 7.299.518 2.563.345 5.14.877 7.732 1.597a53.669 53.669 0 0 1 7.558 2.719 41.7 41.7 0 0 1 6.781 3.797v-25.807c-4.204-1.611-8.797-2.805-13.778-3.582-4.981-.777-10.697-1.165-17.147-1.165-6.565 0-12.784.705-18.658 2.115-5.874 1.409-11.043 3.61-15.506 6.602-4.463 2.993-7.99 6.805-10.582 11.437-2.591 4.632-3.887 10.17-3.887 16.615 0 8.228 2.375 15.248 7.127 21.06 4.751 5.811 11.963 10.731 21.638 14.759a291.458 291.458 0 0 1 10.625 4.575c3.283 1.496 6.119 3.049 8.509 4.66 2.39 1.611 4.276 3.366 5.658 5.265 1.382 1.899 2.073 4.057 2.073 6.474a9.901 9.901 0 0 1-1.296 4.963c-.863 1.524-2.174 2.848-3.93 3.97-1.756 1.122-3.945 1.999-6.565 2.632-2.62.633-5.687.95-9.2.95-5.989 0-11.92-1.05-17.794-3.151-5.875-2.1-11.317-5.25-16.327-9.451Zm-46.036-68.733H140V109H41v22.742h35.345V233h28.137V131.742Z" fill="#FFF"/>
  </symbol>
  <!-- HTML5 Icon -->
  <symbol id='html' viewBox="0 0 452 520">
    <path fill="#e34f26" d="M41 460L0 0h451l-41 460-185 52" />
    <path fill="#ef652a" d="M226 472l149-41 35-394H226" />
    <path
      fill="#ecedee"
      d="M226 208h-75l-5-58h80V94H84l15 171h127zm0 147l-64-17-4-45h-56l7 89 117 32z"
    />
    <path
      fill="#fff"
      d="M226 265h69l-7 73-62 17v59l115-32 16-174H226zm0-171v56h136l5-56z"
    />
  </symbol>
  <!-- CSS Icon -->
  <symbol id="css" viewBox="0 0 1000 1000">
    <path fill="#639" d="M0 0h840a160 160 0 0 1 160 160v680a160 160 0 0 1-160 160H160A160 160 0 0 1 0 840V0Z"/>
    <path fill="#fff" d="M816.54 919.9c-32.39 0-57.16-9.42-74.5-28.35-17.15-19.03-26.08-46.18-26.88-81.64h69.8c.4 31.36 11.42 47.08 33.08 47.08 11.04 0 18.86-3.5 23.37-10.42 4.41-6.9 6.72-17.93 6.72-33.05 0-12.02-3.01-22.04-8.83-29.95a73.2 73.2 0 0 0-29.48-21.14L783.95 750c-23.06-11.02-39.81-24.04-50.14-39.27-10.03-15.13-15.04-36.36-15.04-63.5 0-30.36 8.83-55 26.37-73.94 18.05-18.93 42.62-28.34 74-28.34 30.3 0 53.76 9.31 70.3 27.84 16.85 18.64 25.67 45.28 26.38 80.14h-67.19c.4-11.4-1.9-22.72-6.72-33.06-3.8-7.6-11.23-11.41-22.26-11.41-19.65 0-29.48 11.71-29.48 35.05 0 11.83 2.4 21.04 7.22 28.05A65.18 65.18 0 0 0 822.76 689l24.77 10.92c25.57 11.72 44.02 26.05 55.35 43.38 11.43 17.23 17.05 40.27 17.05 69.12 0 34.56-9.03 61.1-27.38 79.63-18.25 18.53-43.62 27.85-76 27.85Zm-225.42 0c-32.4 0-57.16-9.42-74.51-28.35-17.15-19.03-26.07-46.18-26.87-81.64h69.79c.4 31.36 11.43 47.08 33.1 47.08 11.02 0 18.84-3.5 23.25-10.42 4.52-6.9 6.72-17.93 6.72-33.05 0-12.02-2.9-22.04-8.72-29.95a73.2 73.2 0 0 0-29.48-21.14L558.53 750c-23.07-11.02-39.81-24.04-50.14-39.27-10.03-15.13-15.04-36.36-15.04-63.5 0-30.36 8.82-55 26.37-73.94 18.05-18.93 42.62-28.34 74-28.34 30.29 0 53.75 9.31 70.2 27.84 17.05 18.64 25.77 45.28 26.47 80.14h-67.18c.4-11.4-1.9-22.72-6.72-33.06-3.81-7.6-11.23-11.41-22.26-11.41-19.66 0-29.49 11.71-29.49 35.05 0 11.83 2.41 21.04 7.22 28.05A65.18 65.18 0 0 0 597.33 689l24.77 10.92c25.57 11.72 44.02 26.05 55.36 43.38 11.33 17.23 17.04 40.27 17.04 69.12 0 34.56-9.12 61.1-27.37 79.63-18.25 18.53-43.62 27.85-76.01 27.85Zm-234.75 0c-31.7 0-56.86-8.62-75.51-25.85-18.65-17.12-27.88-42.87-27.88-76.93V648.83c0-33.85 9.83-59.5 29.48-77.13 19.96-17.43 46.13-26.24 78.52-26.24 31.39 0 56.15 9.01 74.5 26.84 18.56 17.93 27.88 44.58 27.88 80.14v13.32h-73.9v-12.92c0-13.72-3.01-23.84-8.83-30.45a26.46 26.46 0 0 0-21.66-10.32c-12.03 0-20.55 4.1-25.37 12.42a79.04 79.04 0 0 0-6.72 36.66v146.26c0 30.55 10.74 46.08 32.1 46.38 10.02 0 17.54-3.61 22.76-10.82a51.74 51.74 0 0 0 7.72-30.46V801.6h73.9v11.42c0 23.74-4.61 43.57-13.94 59.4a88.8 88.8 0 0 1-38.2 35.66 121.46 121.46 0 0 1-54.85 11.82Z"/>
  </symbol>
  <!-- JavaScript Icon -->
  <symbol id='js' viewBox="0 0 1052 1052">
    <path fill="#f0db4f" d="M0 0h1052v1052H0z" />
    <path
      d="M965.9 801.1c-7.7-48-39-88.3-131.7-125.9-32.2-14.8-68.1-25.399-78.8-49.8-3.8-14.2-4.3-22.2-1.9-30.8 6.9-27.9 40.2-36.6 66.6-28.6 17 5.7 33.1 18.801 42.8 39.7 45.4-29.399 45.3-29.2 77-49.399-11.6-18-17.8-26.301-25.4-34-27.3-30.5-64.5-46.2-124-45-10.3 1.3-20.699 2.699-31 4-29.699 7.5-58 23.1-74.6 44-49.8 56.5-35.6 155.399 25 196.1 59.7 44.8 147.4 55 158.6 96.9 10.9 51.3-37.699 67.899-86 62-35.6-7.4-55.399-25.5-76.8-58.4-39.399 22.8-39.399 22.8-79.899 46.1 9.6 21 19.699 30.5 35.8 48.7 76.2 77.3 266.899 73.5 301.1-43.5 1.399-4.001 10.6-30.801 3.199-72.101zm-394-317.6h-98.4c0 85-.399 169.4-.399 254.4 0 54.1 2.8 103.7-6 118.9-14.4 29.899-51.7 26.2-68.7 20.399-17.3-8.5-26.1-20.6-36.3-37.699-2.8-4.9-4.9-8.7-5.601-9-26.699 16.3-53.3 32.699-80 49 13.301 27.3 32.9 51 58 66.399 37.5 22.5 87.9 29.4 140.601 17.3 34.3-10 63.899-30.699 79.399-62.199 22.4-41.3 17.6-91.3 17.4-146.6.5-90.2 0-180.4 0-270.9z"
      fill="#323330"
    />
  </symbol>
  <!-- Express Icon -->
  <symbol id='ex' viewBox="0 0 32 32">
    <path d="M32 24.795c-1.164.296-1.884.013-2.53-.957l-4.594-6.356-.664-.88-5.365 7.257c-.613.873-1.256 1.253-2.4.944l6.87-9.222-6.396-8.33c1.1-.214 1.86-.105 2.535.88l4.765 6.435 4.8-6.4c.615-.873 1.276-1.205 2.38-.883l-2.48 3.288-3.36 4.375c-.4.5-.345.842.023 1.325L32 24.795zM.008 15.427l.562-2.764C2.1 7.193 8.37 4.92 12.694 8.3c2.527 1.988 3.155 4.8 3.03 7.95H1.48c-.214 5.67 3.867 9.092 9.07 7.346 1.825-.613 2.9-2.042 3.438-3.83.273-.896.725-1.036 1.567-.78-.43 2.236-1.4 4.104-3.45 5.273-3.063 1.75-7.435 1.184-9.735-1.248C1 21.6.434 19.812.18 17.9c-.04-.316-.12-.617-.18-.92q.008-.776.008-1.552zm1.498-.38h12.872c-.084-4.1-2.637-7.012-6.126-7.037-3.83-.03-6.58 2.813-6.746 7.037z" />
  </symbol>
  <!-- Tailwind Icon -->
  <symbol id='tailwind' fill="none" viewBox="0 0 54 33">
    <g clipPath="url(#tailwindcss__a)">
      <path
        fill="#38bdf8"
        fillRule="evenodd"
        d="M27 0c-7.2 0-11.7 3.6-13.5 10.8 2.7-3.6 5.85-4.95 9.45-4.05 2.054.513 3.522 2.004 5.147 3.653C30.744 13.09 33.808 16.2 40.5 16.2c7.2 0 11.7-3.6 13.5-10.8-2.7 3.6-5.85 4.95-9.45 4.05-2.054-.513-3.522-2.004-5.147-3.653C36.756 3.11 33.692 0 27 0zM13.5 16.2C6.3 16.2 1.8 19.8 0 27c2.7-3.6 5.85-4.95 9.45-4.05 2.054.514 3.522 2.004 5.147 3.653C17.244 29.29 20.308 32.4 27 32.4c7.2 0 11.7-3.6 13.5-10.8-2.7 3.6-5.85 4.95-9.45 4.05-2.054-.513-3.522-2.004-5.147-3.653C23.256 19.31 20.192 16.2 13.5 16.2z"
        clipRule="evenodd"
      />
    </g>
    <defs>
      <clipPath id="tailwindcss__a">
        <path fill="#fff" d="M0 0h54v32.4H0z" />
      </clipPath>
    </defs>
  </symbol>
  <!-- Redux Icon -->
  <symbol id='redux' viewBox="0 -6 256 256" preserveAspectRatio="xMidYMid">
    <path
      d="M177.381 169.733c9.447-.978 16.614-9.122 16.288-18.896-.325-9.773-8.47-17.592-18.243-17.592h-.651c-10.1.326-17.918 8.796-17.592 18.895.326 4.887 2.28 9.122 5.212 12.054-11.076 21.828-28.016 37.791-53.426 51.148-17.266 9.122-35.183 12.38-53.1 10.1-14.66-1.955-26.062-8.47-33.23-19.222-10.424-15.963-11.401-33.23-2.605-50.496 6.19-12.38 15.962-21.502 22.152-26.063-1.303-4.235-3.258-11.402-4.235-16.614-47.237 34.207-42.35 80.468-28.016 102.295 10.75 16.29 32.577 26.389 56.684 26.389 6.515 0 13.03-.652 19.546-2.28 41.699-8.145 73.299-32.905 91.216-69.718zm57.336-40.397c-24.759-28.995-61.245-44.958-102.944-44.958h-5.212c-2.932-5.864-9.122-9.774-15.963-9.774h-.652C99.848 74.93 92.03 83.4 92.355 93.5c.326 9.773 8.47 17.592 18.243 17.592h.651c7.167-.326 13.357-4.887 15.963-11.077h5.864c24.759 0 48.214 7.167 69.39 21.176 16.288 10.751 28.016 24.76 34.531 41.7 5.538 13.683 5.212 27.04-.652 38.443-9.121 17.266-24.432 26.714-44.63 26.714-13.031 0-25.41-3.91-31.926-6.842-3.583 3.258-10.099 8.47-14.66 11.729 14.009 6.515 28.343 10.099 42.025 10.099 31.274 0 54.404-17.267 63.2-34.533 9.447-18.896 8.795-51.474-15.637-79.165zM69.225 175.27c.326 9.774 8.47 17.592 18.243 17.592h.652c10.099-.325 17.917-8.796 17.591-18.895-.325-9.774-8.47-17.592-18.243-17.592h-.651c-.652 0-1.63 0-2.28.325-13.357-22.153-18.895-46.26-16.94-72.323 1.302-19.547 7.818-36.488 19.22-50.497 9.447-12.054 27.69-17.918 40.07-18.243 34.531-.652 49.19 42.351 50.168 59.618 4.235.977 11.402 3.258 16.289 4.887C189.434 27.366 156.857 0 125.584 0c-29.32 0-56.359 21.176-67.11 52.451-14.985 41.7-5.212 81.771 13.031 113.372-1.628 2.28-2.606 5.864-2.28 9.448z"
      fill="#764ABC"
    />
  </symbol>
  <!-- MongoDB Icon -->
  <symbol id='mongodb' fill="none" viewBox="0 0 120 258">
    <path
      fill="#001E2B"
      d="M83.009 28.756C72.133 15.909 62.767 2.86 60.854.15a.488.488 0 0 0-.705 0c-1.913 2.71-11.28 15.758-22.155 28.605-93.353 118.536 14.703 198.531 14.703 198.531l.906.602c.806 12.346 2.82 30.111 2.82 30.111h8.056s2.014-17.665 2.82-30.111l.906-.702c.101 0 108.157-79.895 14.804-198.431ZM60.45 225.48s-4.834-4.115-6.143-6.223v-.2l5.84-129.076c0-.401.605-.401.605 0l5.841 129.076v.2c-1.31 2.108-6.143 6.223-6.143 6.223Z"
    />
  </symbol>
  <!-- Playwright Icon -->
  <symbol id='playwright' viewBox="0 0 400 400" fill="none">
    <path
      d="M136.444 221.556C123.558 225.213 115.104 231.625 109.535 238.032C114.869 233.364 122.014 229.08 131.652 226.348C141.51 223.554 149.92 223.574 156.869 224.915V219.481C150.941 218.939 144.145 219.371 136.444 221.556ZM108.946 175.876L61.0895 188.484C61.0895 188.484 61.9617 189.716 63.5767 191.36L104.153 180.668C104.153 180.668 103.578 188.077 98.5847 194.705C108.03 187.559 108.946 175.876 108.946 175.876ZM149.005 288.347C81.6582 306.486 46.0272 228.438 35.2396 187.928C30.2556 169.229 28.0799 155.067 27.5 145.928C27.4377 144.979 27.4665 144.179 27.5336 143.446C24.04 143.657 22.3674 145.473 22.7077 150.721C23.2876 159.855 25.4633 174.016 30.4473 192.721C41.2301 233.225 76.8659 311.273 144.213 293.134C158.872 289.185 169.885 281.992 178.152 272.81C170.532 279.692 160.995 285.112 149.005 288.347ZM161.661 128.11V132.903H188.077C187.535 131.206 186.989 129.677 186.447 128.11H161.661Z"
      fill="#2D4552"
    />
    <path
      d="M193.981 167.584C205.861 170.958 212.144 179.287 215.465 186.658L228.711 190.42C228.711 190.42 226.904 164.623 203.57 157.995C181.741 151.793 168.308 170.124 166.674 172.496C173.024 167.972 182.297 164.268 193.981 167.584ZM299.422 186.777C277.573 180.547 264.145 198.916 262.535 201.255C268.89 196.736 278.158 193.031 289.837 196.362C301.698 199.741 307.976 208.06 311.307 215.436L324.572 219.212C324.572 219.212 322.736 193.41 299.422 186.777ZM286.262 254.795L176.072 223.99C176.072 223.99 177.265 230.038 181.842 237.869L274.617 263.805C282.255 259.386 286.262 254.795 286.262 254.795ZM209.867 321.102C122.618 297.71 133.166 186.543 147.284 133.865C153.097 112.156 159.073 96.0203 164.029 85.204C161.072 84.5953 158.623 86.1529 156.203 91.0746C150.941 101.747 144.212 119.124 137.7 143.45C123.586 196.127 113.038 307.29 200.283 330.682C241.406 341.699 273.442 324.955 297.323 298.659C274.655 319.19 245.714 330.701 209.867 321.102Z"
      fill="#2D4552"
    />
    <path
      d="M161.661 262.296V239.863L99.3324 257.537C99.3324 257.537 103.938 230.777 136.444 221.556C146.302 218.762 154.713 218.781 161.661 220.123V128.11H192.869C189.471 117.61 186.184 109.526 183.423 103.909C178.856 94.612 174.174 100.775 163.545 109.665C156.059 115.919 137.139 129.261 108.668 136.933C80.1966 144.61 57.179 142.574 47.5752 140.911C33.9601 138.562 26.8387 135.572 27.5049 145.928C28.0847 155.062 30.2605 169.224 35.2445 187.928C46.0272 228.433 81.663 306.481 149.01 288.342C166.602 283.602 179.019 274.233 187.626 262.291H161.661V262.296ZM61.0848 188.484L108.946 175.876C108.946 175.876 107.551 194.288 89.6087 199.018C71.6614 203.743 61.0848 188.484 61.0848 188.484Z"
      fill="#E2574C"
    />
    <path
      d="M341.786 129.174C329.345 131.355 299.498 134.072 262.612 124.185C225.716 114.304 201.236 97.0224 191.537 88.8994C177.788 77.3834 171.74 69.3802 165.788 81.4857C160.526 92.163 153.797 109.54 147.284 133.866C133.171 186.543 122.623 297.706 209.867 321.098C297.093 344.47 343.53 242.92 357.644 190.238C364.157 165.917 367.013 147.5 367.799 135.625C368.695 122.173 359.455 126.078 341.786 129.174ZM166.497 172.756C166.497 172.756 180.246 151.372 203.565 158C226.899 164.628 228.706 190.425 228.706 190.425L166.497 172.756ZM223.42 268.713C182.403 256.698 176.077 223.99 176.077 223.99L286.262 254.796C286.262 254.791 264.021 280.578 223.42 268.713ZM262.377 201.495C262.377 201.495 276.107 180.126 299.422 186.773C322.736 193.411 324.572 219.208 324.572 219.208L262.377 201.495Z"
      fill="#2EAD33"
    />
    <path
      d="M139.88 246.04L99.3324 257.532C99.3324 257.532 103.737 232.44 133.607 222.496L110.647 136.33L108.663 136.933C80.1918 144.611 57.1742 142.574 47.5704 140.911C33.9554 138.563 26.834 135.572 27.5001 145.929C28.08 155.063 30.2557 169.224 35.2397 187.929C46.0225 228.433 81.6583 306.481 149.005 288.342L150.989 287.719L139.88 246.04ZM61.0848 188.485L108.946 175.876C108.946 175.876 107.551 194.288 89.6087 199.018C71.6615 203.743 61.0848 188.485 61.0848 188.485Z"
      fill="#D65348"
    />
    <path
      d="M225.27 269.163L223.415 268.712C182.398 256.698 176.072 223.99 176.072 223.99L232.89 239.872L262.971 124.281L262.607 124.185C225.711 114.304 201.232 97.0224 191.532 88.8994C177.783 77.3834 171.735 69.3802 165.783 81.4857C160.526 92.163 153.797 109.54 147.284 133.866C133.171 186.543 122.623 297.706 209.867 321.097L211.655 321.5L225.27 269.163ZM166.497 172.756C166.497 172.756 180.246 151.372 203.565 158C226.899 164.628 228.706 190.425 228.706 190.425L166.497 172.756Z"
      fill="#1D8D22"
    />
    <path
      d="M141.946 245.451L131.072 248.537C133.641 263.019 138.169 276.917 145.276 289.195C146.513 288.922 147.74 288.687 149 288.342C152.302 287.451 155.364 286.348 158.312 285.145C150.371 273.361 145.118 259.789 141.946 245.451ZM137.7 143.451C132.112 164.307 127.113 194.326 128.489 224.436C130.952 223.367 133.554 222.371 136.444 221.551L138.457 221.101C136.003 188.939 141.308 156.165 147.284 133.866C148.799 128.225 150.318 122.978 151.832 118.085C149.393 119.637 146.767 121.228 143.776 122.867C141.759 129.093 139.722 135.898 137.7 143.451Z"
      fill="#C04B41"
    />
  </symbol>
<!-- Instagram Icon -->
  <symbol id="instagram" viewBox="0 0 256 256">
    <path fill="#fff" d="M128 23.064c34.177 0 38.225.13 51.722.745 12.48.57 19.258 2.655 23.769 4.408 5.974 2.322 10.238 5.096 14.717 9.575 4.48 4.479 7.253 8.743 9.575 14.717 1.753 4.511 3.838 11.289 4.408 23.768.615 13.498.745 17.546.745 51.723 0 34.178-.13 38.226-.745 51.723-.57 12.48-2.655 19.257-4.408 23.768-2.322 5.974-5.096 10.239-9.575 14.718-4.479 4.479-8.743 7.253-14.717 9.574-4.511 1.753-11.289 3.839-23.769 4.408-13.495.616-17.543.746-51.722.746-34.18 0-38.228-.13-51.723-.746-12.48-.57-19.257-2.655-23.768-4.408-5.974-2.321-10.239-5.095-14.718-9.574-4.479-4.48-7.253-8.744-9.574-14.718-1.753-4.51-3.839-11.288-4.408-23.768-.616-13.497-.746-17.545-.746-51.723 0-34.177.13-38.225.746-51.722.57-12.48 2.655-19.258 4.408-23.769 2.321-5.974 5.095-10.238 9.574-14.717 4.48-4.48 8.744-7.253 14.718-9.575 4.51-1.753 11.289-3.838 23.768-4.408 13.497-.615 17.545-.745 51.723-.745M128 0C93.237 0 88.878.147 75.226.77c-13.625.622-22.93 2.786-31.071 5.95-8.418 3.271-15.556 7.648-22.672 14.764C14.367 28.6 9.991 35.738 6.72 44.155 3.555 52.297 1.392 61.602.77 75.226.147 88.878 0 93.237 0 128c0 34.763.147 39.122.77 52.774.622 13.625 2.785 22.93 5.95 31.071 3.27 8.417 7.647 15.556 14.763 22.672 7.116 7.116 14.254 11.492 22.672 14.763 8.142 3.165 17.446 5.328 31.07 5.95 13.653.623 18.012.77 52.775.77s39.122-.147 52.774-.77c13.624-.622 22.929-2.785 31.07-5.95 8.418-3.27 15.556-7.647 22.672-14.763 7.116-7.116 11.493-14.254 14.764-22.672 3.164-8.142 5.328-17.446 5.95-31.07.623-13.653.77-18.012.77-52.775s-.147-39.122-.77-52.774c-.622-13.624-2.786-22.929-5.95-31.07-3.271-8.418-7.648-15.556-14.764-22.672C227.4 14.368 220.262 9.99 211.845 6.72c-8.142-3.164-17.447-5.328-31.071-5.95C167.122.147 162.763 0 128 0Zm0 62.27C91.698 62.27 62.27 91.7 62.27 128c0 36.302 29.428 65.73 65.73 65.73 36.301 0 65.73-29.428 65.73-65.73 0-36.301-29.429-65.73-65.73-65.73Zm0 108.397c-23.564 0-42.667-19.103-42.667-42.667S104.436 85.333 128 85.333s42.667 19.103 42.667 42.667-19.103 42.667-42.667 42.667Zm83.686-110.994c0 8.484-6.876 15.36-15.36 15.36-8.483 0-15.36-6.876-15.36-15.36 0-8.483 6.877-15.36 15.36-15.36 8.484 0 15.36 6.877 15.36 15.36Z"/>
  </symbol>
  <!-- X (Twitter) Icon -->
  <symbol id="x" viewBox="0 0 1200 1227">
    <path fill="#fff" d="M714.163 519.284 1160.89 0h-105.86L667.137 450.887 357.328 0H0l468.492 681.821L0 1226.37h105.866l409.625-476.152 327.181 476.152H1200L714.137 519.284h.026ZM569.165 687.828l-47.468-67.894-377.686-540.24h162.604l304.797 435.991 47.468 67.894 396.2 566.721H892.476L569.165 687.854v-.026Z"/>
  </symbol>
  <!-- YouTube Icon -->
  <symbol id="youtube" viewBox="0 0 256 180">
    <path d="M250.346 28.075A32.18 32.18 0 0 0 227.69 5.418C207.824 0 127.87 0 127.87 0S47.912.164 28.046 5.582A32.18 32.18 0 0 0 5.39 28.24c-6.009 35.298-8.34 89.084.165 122.97a32.18 32.18 0 0 0 22.656 22.657c19.866 5.418 99.822 5.418 99.822 5.418s79.955 0 99.82-5.418a32.18 32.18 0 0 0 22.657-22.657c6.338-35.348 8.291-89.1-.164-123.134Z" fill="red"/>
    <path fill="#FFF" d="m102.421 128.06 66.328-38.418-66.328-38.418z"/>
  </symbol>
  <!-- LinkedIn Icon -->
  <symbol id="linkedin" viewBox="0 0 256 256">
    <path d="M218.123 218.127h-37.931v-59.403c0-14.165-.253-32.4-19.728-32.4-19.756 0-22.779 15.434-22.779 31.369v60.43h-37.93V95.967h36.413v16.694h.51a39.907 39.907 0 0 1 35.928-19.733c38.445 0 45.533 25.288 45.533 58.186l-.016 67.013ZM56.955 79.27c-12.157.002-22.014-9.852-22.016-22.009-.002-12.157 9.851-22.014 22.008-22.016 12.157-.003 22.014 9.851 22.016 22.008A22.013 22.013 0 0 1 56.955 79.27m18.966 138.858H37.95V95.967h37.97v122.16ZM237.033.018H18.89C8.58-.098.125 8.161-.001 18.471v219.053c.122 10.315 8.576 18.582 18.89 18.474h218.144c10.336.128 18.823-8.139 18.966-18.474V18.454c-.147-10.33-8.635-18.588-18.966-18.453" fill="#0A66C2"/>
  </symbol>
  <!-- GitHub Icon -->
  <symbol id="github" viewBox="0 0 1024 1024">
    <path fill-rule="evenodd" clip-rule="evenodd" d="M8 0C3.58 0 0 3.58 0 8C0 11.54 2.29 14.53 5.47 15.59C5.87 15.66 6.02 15.42 6.02 15.21C6.02 15.02 6.01 14.39 6.01 13.72C4 14.09 3.48 13.23 3.32 12.78C3.23 12.55 2.84 11.84 2.5 11.65C2.22 11.5 1.82 11.13 2.49 11.12C3.12 11.11 3.57 11.7 3.72 11.94C4.44 13.15 5.59 12.81 6.05 12.6C6.12 12.08 6.33 11.73 6.56 11.53C4.78 11.33 2.92 10.64 2.92 7.58C2.92 6.71 3.23 5.99 3.74 5.43C3.66 5.23 3.38 4.41 3.82 3.31C3.82 3.31 4.49 3.1 6.02 4.13C6.66 3.95 7.34 3.86 8.02 3.86C8.7 3.86 9.38 3.95 10.02 4.13C11.55 3.09 12.22 3.31 12.22 3.31C12.66 4.41 12.38 5.23 12.3 5.43C12.81 5.99 13.12 6.7 13.12 7.58C13.12 10.65 11.25 11.33 9.47 11.53C9.76 11.78 10.01 12.26 10.01 13.01C10.01 14.08 10 14.94 10 15.21C10 15.42 10.15 15.67 10.55 15.59C13.71 14.53 16 11.53 16 8C16 3.58 12.42 0 8 0Z" transform="scale(64)" fill="#fff"/>
  </symbol>  
  <!-- Twitch Icon -->
  <symbol id="twitch" viewBox="0 0 2400 2800">
    <path fill="#fff" d="m2200 1300-400 400h-400l-350 350v-350H600V200h1600z"/>
    <g fill="#9146ff">
      <path d="M500 0 0 500v1800h600v500l500-500h400l900-900V0H500zm1700 1300-400 400h-400l-350 350v-350H600V200h1600v1100z"/>
      <path d="M1700 550h200v600h-200zm-550 0h200v600h-200z"/>
    </g>
  </symbol>
  <!-- Verified Icon -->
  <symbol id="verified" viewBox="0 0 20 20">
    <path fill-rule="evenodd" d="M10 18a8 8 0 100-16 8 8 0 000 16zm3.707-8.707a1 1 0 00-1.414-1.414L9 11.172l-1.293-1.293a1 1 0 00-1.414 1.414l2 2a1 1 0 001.414 0l4-4z" clip-rule="evenodd" />
  </symbol>
</svg>